<svg width="33" height="33" viewBox="0 0 33 33" fill="none" xmlns="http://www.w3.org/2000/svg">
<path d="M16.5 2.74998C12.7091 2.74998 9.62502 5.83411 9.62502 9.62498V13.75H8.25002C7.52067 13.75 6.8212 14.0397 6.30547 14.5554C5.78975 15.0712 5.50002 15.7706 5.50002 16.5V27.5C5.50002 28.2293 5.78975 28.9288 6.30547 29.4445C6.8212 29.9603 7.52067 30.25 8.25002 30.25H24.75C25.4794 30.25 26.1788 29.9603 26.6946 29.4445C27.2103 28.9288 27.5 28.2293 27.5 27.5V16.5C27.5 15.7706 27.2103 15.0712 26.6946 14.5554C26.1788 14.0397 25.4794 13.75 24.75 13.75H23.375V9.62498C23.375 5.83411 20.2909 2.74998 16.5 2.74998ZM12.375 9.62498C12.375 7.35073 14.2258 5.49998 16.5 5.49998C18.7743 5.49998 20.625 7.35073 20.625 9.62498V13.75H12.375V9.62498ZM17.875 24.3691V27.5H15.125V24.3691C14.6443 24.0938 14.2583 23.6793 14.0179 23.1802C13.7775 22.6811 13.694 22.1209 13.7785 21.5734C13.8629 21.0259 14.1112 20.5169 14.4908 20.1134C14.8704 19.7099 15.3633 19.4309 15.9046 19.3132C16.3067 19.2243 16.7236 19.2268 17.1246 19.3205C17.5256 19.4142 17.9004 19.5967 18.2215 19.8545C18.5426 20.1124 18.8016 20.439 18.9797 20.8103C19.1577 21.1817 19.2501 21.5882 19.25 22C19.2492 22.4809 19.1217 22.9531 18.8803 23.369C18.6389 23.7849 18.2922 24.1299 17.875 24.3691Z" fill="#10457A"/>
</svg>
